<svg id="Camada_1" data-name="Camada 1" xmlns="http://www.w3.org/2000/svg" viewBox="0 0 98 100"><defs><style>.cls-1{opacity:0.5;}</style></defs><title>Avaliacao</title><polygon points="50.63 7.55 60.02 27.78 81 31.02 65.81 46.77 69.4 69 50.63 58.5 31.86 69 35.44 46.77 20.26 31.02 41.24 27.78 50.63 7.55"/><polygon class="cls-1" points="17.73 72.55 19.73 76.6 24.2 77.25 20.96 80.4 21.73 84.85 17.73 82.75 13.73 84.85 14.49 80.4 11.26 77.25 15.73 76.6 17.73 72.55"/><polygon class="cls-1" points="33.15 72.55 35.15 76.6 39.62 77.25 36.39 80.4 37.15 84.85 33.15 82.75 29.16 84.85 29.92 80.4 26.68 77.25 31.15 76.6 33.15 72.55"/><polygon class="cls-1" points="49.68 72.55 51.68 76.6 56.15 77.25 52.91 80.4 53.68 84.85 49.68 82.75 45.68 84.85 46.45 80.4 43.21 77.25 47.68 76.6 49.68 72.55"/><polygon class="cls-1" points="65.11 72.55 67.11 76.6 71.57 77.25 68.34 80.4 69.1 84.85 65.11 82.75 61.11 84.85 61.87 80.4 58.64 77.25 63.11 76.6 65.11 72.55"/><polygon class="cls-1" points="80.53 72.55 82.53 76.6 87 77.25 83.77 80.4 84.53 84.85 80.53 82.75 76.53 84.85 77.3 80.4 74.06 77.25 78.53 76.6 80.53 72.55"/></svg>