<svg id="Camada_1" data-name="Camada 1" xmlns="http://www.w3.org/2000/svg" viewBox="0 0 98 100"><defs><style>.cls-1{fill:none;}.cls-2{opacity:0.5;}</style></defs><title>publica</title><path d="M52.58,77.22A2.5,2.5,0,1,0,56.77,80l21-32.26L73.59,45Z"/><rect x="74.97" y="41.37" width="4.46" height="5.23" transform="translate(-1.79 84.66) rotate(-56.92)"/><path class="cls-1" d="M25.5,13.5v64h49v-64ZM69,65.5H31.5v-1H69Zm0-4H31.5v-1H69Zm0-4H31.5v-1H69Zm0-4H31.5v-1H69Zm0-4H31.5v-1H69Zm0-4H31.5v-1H69Zm0-4H31.5v-1H69Zm0-4H31.5v-1H69Zm0-4H31.5v-1H69Zm0-4H31.5v-1H69Zm0-4H31.5v-1H69Zm0-4H31.5v-1H69Z"/><rect class="cls-2" x="31.5" y="20.5" width="37.5" height="1"/><rect class="cls-2" x="31.5" y="24.5" width="37.5" height="1"/><rect class="cls-2" x="31.5" y="28.5" width="37.5" height="1"/><rect class="cls-2" x="31.5" y="32.5" width="37.5" height="1"/><rect class="cls-2" x="31.5" y="36.5" width="37.5" height="1"/><rect class="cls-2" x="31.5" y="40.5" width="37.5" height="1"/><rect class="cls-2" x="31.5" y="44.5" width="37.5" height="1"/><rect class="cls-2" x="31.5" y="48.5" width="37.5" height="1"/><rect class="cls-2" x="31.5" y="52.5" width="37.5" height="1"/><rect class="cls-2" x="31.5" y="56.5" width="37.5" height="1"/><rect class="cls-2" x="31.5" y="60.5" width="37.5" height="1"/><rect class="cls-2" x="31.5" y="64.5" width="37.5" height="1"/></svg>