<svg id="Camada_1" data-name="Camada 1" xmlns="http://www.w3.org/2000/svg" viewBox="0 0 98 100"><defs><style>.cls-1{fill-rule:evenodd;}</style></defs><title>WhatsApp</title><path class="cls-1" d="M71.79,25.57a29.25,29.25,0,0,0-46,35.28L21.62,76l15.5-4.07a29.19,29.19,0,0,0,14,3.56h0A29.25,29.25,0,0,0,71.79,25.57Zm-20.68,45h0a24.39,24.39,0,0,1-12.37-3.39l-.89-.53-9.2,2.41,2.46-9-.58-.92A24.3,24.3,0,1,1,51.11,70.56Zm13.32-18.2c-.73-.37-4.32-2.14-5-2.38s-1.15-.37-1.64.37-1.89,2.37-2.31,2.86-.86.55-1.59.18A20,20,0,0,1,48,49.77,22.35,22.35,0,0,1,44,44.71c-.42-.74,0-1.09.33-1.49a21.39,21.39,0,0,0,1.82-2.5,1.33,1.33,0,0,0-.06-1.28c-.18-.37-1.64-4-2.25-5.43s-1.2-1.23-1.65-1.25-.91,0-1.4,0a2.7,2.7,0,0,0-1.94.92,8.19,8.19,0,0,0-2.56,6.09c0,3.6,2.62,7.07,3,7.56s5.15,7.86,12.48,11a43.46,43.46,0,0,0,4.17,1.54,10.21,10.21,0,0,0,4.6.29c1.4-.21,4.32-1.77,4.93-3.48a6,6,0,0,0,.42-3.47C65.65,52.9,65.16,52.72,64.43,52.36Z"/></svg>